<svg xmlns="http://www.w3.org/2000/svg" xmlns:xlink="http://www.w3.org/1999/xlink" width="44" zoomAndPan="magnify" viewBox="0 0 33 32.999998" height="44" preserveAspectRatio="xMidYMid meet" version="1.0"><defs><clipPath id="db663f43a9"><path d="M 14 12 L 24.855469 12 L 24.855469 22.589844 L 14 22.589844 Z M 14 12 " clip-rule="nonzero"/></clipPath><clipPath id="14c8b3bd07"><path d="M 8.355469 10.589844 L 19 10.589844 L 19 21 L 8.355469 21 Z M 8.355469 10.589844 " clip-rule="nonzero"/></clipPath></defs><g clip-path="url(#db663f43a9)"><path fill="#ff3131" d="M 15.648438 13.347656 C 14.144531 14.859375 13.9375 17.179688 15.03125 18.910156 C 15.402344 18.792969 15.753906 18.585938 16.050781 18.289062 C 16.140625 18.199219 16.222656 18.105469 16.296875 18.003906 C 15.632812 16.882812 15.785156 15.414062 16.746094 14.449219 C 17.882812 13.308594 19.730469 13.308594 20.871094 14.449219 C 22.007812 15.589844 22.007812 17.441406 20.871094 18.585938 C 20.15625 19.300781 19.164062 19.570312 18.242188 19.386719 C 18.089844 19.59375 17.921875 19.792969 17.738281 19.980469 C 17.5 20.21875 17.246094 20.425781 16.976562 20.605469 C 18.390625 21.242188 20.070312 21.105469 21.371094 20.1875 L 21.742188 20.5625 L 21.050781 21.253906 C 20.75 21.558594 20.75 22.054688 21.050781 22.355469 C 21.351562 22.65625 21.847656 22.65625 22.148438 22.355469 L 22.839844 21.660156 L 23.53125 22.355469 C 23.832031 22.65625 24.328125 22.65625 24.628906 22.355469 C 24.929688 22.054688 24.929688 21.558594 24.628906 21.253906 L 23.9375 20.5625 L 24.628906 19.867188 C 24.929688 19.5625 24.929688 19.070312 24.628906 18.765625 C 24.328125 18.464844 23.832031 18.464844 23.53125 18.765625 L 22.839844 19.460938 L 22.46875 19.089844 C 23.691406 17.339844 23.523438 14.910156 21.96875 13.347656 C 20.222656 11.597656 17.394531 11.597656 15.648438 13.347656 " fill-opacity="1" fill-rule="nonzero"/></g><g clip-path="url(#14c8b3bd07)"><path fill="#004aad" d="M 11.003906 12.15625 L 11.691406 12.847656 C 12.992188 11.929688 14.667969 11.792969 16.085938 12.429688 C 15.816406 12.609375 15.5625 12.816406 15.324219 13.054688 C 15.136719 13.242188 14.96875 13.441406 14.820312 13.648438 C 13.898438 13.464844 12.90625 13.734375 12.191406 14.449219 C 11.050781 15.589844 11.050781 17.445312 12.191406 18.585938 C 13.332031 19.726562 15.175781 19.726562 16.316406 18.585938 C 17.277344 17.621094 17.425781 16.152344 16.765625 15.03125 C 16.839844 14.929688 16.921875 14.835938 17.011719 14.746094 C 17.308594 14.449219 17.65625 14.242188 18.03125 14.125 C 19.125 15.855469 18.917969 18.175781 17.414062 19.6875 C 15.667969 21.4375 12.839844 21.4375 11.09375 19.6875 C 9.535156 18.125 9.371094 15.695312 10.59375 13.945312 L 9.90625 13.257812 L 9.90625 14.003906 C 9.90625 14.429688 9.558594 14.78125 9.128906 14.78125 C 8.703125 14.78125 8.355469 14.429688 8.355469 14.003906 L 8.355469 10.601562 L 11.746094 10.601562 C 12.171875 10.601562 12.523438 10.953125 12.523438 11.378906 C 12.523438 11.808594 12.171875 12.15625 11.746094 12.15625 Z M 11.003906 12.15625 " fill-opacity="1" fill-rule="nonzero"/></g></svg>