<svg xmlns="http://www.w3.org/2000/svg" xmlns:xlink="http://www.w3.org/1999/xlink" width="44" zoomAndPan="magnify" viewBox="0 0 33 32.999998" height="44" preserveAspectRatio="xMidYMid meet" version="1.0"><defs><clipPath id="16bfd37b7d"><path d="M 9.898438 10.800781 L 23.398438 10.800781 L 23.398438 22.050781 L 9.898438 22.050781 Z M 9.898438 10.800781 " clip-rule="nonzero"/></clipPath></defs><g clip-path="url(#16bfd37b7d)"><path fill="#ff3131" d="M 12.988281 16.484375 C 12.988281 16.472656 12.988281 16.464844 12.988281 16.453125 C 12.878906 13.828125 15.207031 11.875 17.59375 11.875 C 19.984375 11.875 22.265625 13.695312 22.265625 16.453125 C 22.265625 17.730469 21.648438 18.929688 20.839844 19.699219 C 19.898438 20.589844 18.683594 20.953125 17.65625 20.953125 C 15.746094 20.953125 14.425781 19.648438 14.425781 19.648438 L 13.574219 20.421875 C 13.574219 20.421875 14.433594 21.15625 15.140625 21.472656 C 15.847656 21.785156 16.050781 21.976562 17.59375 22.011719 C 18.917969 22.039062 20.15625 21.46875 20.960938 20.953125 C 23.222656 19.496094 23.398438 17.421875 23.398438 16.46875 C 23.398438 15.515625 23.203125 13.648438 21.320312 12.105469 C 20.4375 11.382812 19.289062 10.808594 17.488281 10.808594 C 15.804688 10.808594 14.523438 11.558594 13.6875 12.261719 C 11.714844 13.921875 11.796875 16.46875 11.796875 16.46875 C 11.796875 16.46875 11.796875 16.472656 11.800781 16.484375 L 9.898438 16.484375 L 12.464844 19.039062 L 15.109375 16.484375 Z M 12.988281 16.484375 " fill-opacity="1" fill-rule="evenodd"/></g><path fill="#ff3131" d="M 17.070312 14.105469 L 17.070312 17.089844 L 19.820312 18.699219 L 20.289062 18.070312 L 17.976562 16.722656 L 17.976562 14.105469 Z M 17.070312 14.105469 " fill-opacity="1" fill-rule="evenodd"/></svg>